<svg width="244" height="34" viewBox="0 0 244 34" fill="none" xmlns="http://www.w3.org/2000/svg">
<g clip-path="url(#clip0_4_14)">
<path d="M35.6 0.1H9C4 9.31323e-10 0 4 0 9V24.6C0 29.5 4 33.6 9 33.6H35.6V33.7C40.6 33.7 44.6 29.7 44.6 24.7V9.1C44.6 4.1 40.6 0.1 35.6 0.1Z" fill="#009D42"/>
<path d="M41.3 18.9C41.3 13.8 35.6 12.6 35.6 12.6C35.6 12.6 34.9 8.6 33 7.7C31 6.8 27.7 6.8 27.7 6.8C27.7 6.8 27 2.5 22.4 2.5H22.2C17.6 2.5 16.8 6.9 16.8 6.9C16.8 6.9 13.4 6.9 11.5 7.8C9.5 8.7 8.8 12.6 8.8 12.6C8.8 12.6 3.1 13.8 3.1 18.9C3.1 21.5 6.1 23.8 6.1 23.8C6.1 23.8 5.9 29.1 9.1 29.4C13.3 29.8 16 26.1 16 26.1V33.9H18.7V25.9C18.7 25.9 19.8 28.7 22.1 28.8C24.3 28.7 25.5 25.9 25.5 25.9V33.9H28.2V26.1C28.2 26.1 30.9 29.8 35.1 29.4C38.3 29.2 38.1 23.8 38.1 23.8C38.1 23.8 41.3 21.5 41.3 18.9ZM22.4 25.5C20.2 25.5 20.4 21 20.4 21H24.2C24.2 21 24.4 25.5 22.4 25.5ZM35.4 22.6C35.4 22.6 36.1 26.2 34.2 26.6C31.2 27.3 29.4 21.2 29.4 21.2H32.5C32.5 21.2 33.6 21 33.6 19.7C33.6 18.5 32.4 18.3 32.4 18.3H29.7C29.7 18.3 28.5 18.4 28.5 17.1V15.5C28.5 15.5 28.3 14.2 27.1 14.2C25.9 14.2 25.6 15.4 25.6 15.4L25.7 16.9C25.7 16.9 25.7 18.3 24.9 18.3H22.3H19.7C18.9 18.3 18.9 16.9 18.9 16.9L19 15.4C19 15.4 18.8 14.2 17.5 14.2C16.3 14.2 16.1 15.5 16.1 15.5V17C16.1 18.3 14.9 18.2 14.9 18.2H12C12 18.2 10.8 18.4 10.8 19.6C10.8 20.8 11.9 21.1 11.9 21.1H15C15 21.1 13.2 27.2 10.2 26.5C8.5 26.1 9 22.5 9 22.5C9 22.5 6 20.7 6 18.8C6 15 10.7 15.5 10.7 15.5C10.7 15.5 11.2 12 12.7 10.7C14.6 9.1 17.7 10 17.7 10C17.7 10 18.9 5.5 22.1 5.1H22.4C25.6 5.3 26.8 10 26.8 10C26.8 10 29.9 9 31.8 10.7C33.3 12 33.8 15.5 33.8 15.5C33.8 15.5 38.5 15 38.5 18.8C38.4 20.8 35.4 22.6 35.4 22.6Z" fill="white"/>
<path d="M63.4 20.1C67.5 20.3 71.6 21.6 71.6 24.4C71.6 30.2 51.6 30.2 51.6 24.4C51.6 21.6 55.8 20.4 59.8 20.1V18.5H50.7V16.4H72.5V18.5H63.4V20.1ZM52 12.4H54.7V9.1H52V6.9H71.5V9H68.8V12.5H71.5V14.6H52V12.4ZM67.8 24.4C67.8 21.3 55.5 21.3 55.5 24.4C55.5 27.4 67.8 27.4 67.8 24.4ZM58.3 9.1V12.6H65.2V9.1H58.3ZM85.8 11.4V9H75.6V6.9H89.3V13.5H79.2V16H86.2C88.4 16 90.4 16 92.6 15.3V6.4H96.3V18.5H92.6V17.3C90.5 17.9 88.4 18 86.3 18H79.6C77.4 18 75.6 16.5 75.6 14.7V11.3L85.8 11.4ZM96.3 19.9V27.9H81C78.8 27.9 77.1 26.4 77.1 24.6V19.9H96.3ZM80.7 22V25.8H92.7V22H80.7ZM112.1 27.9H108.5V21.1H99.4V19H121.2V21H112.1V27.9ZM120 6.9V16.6H104.5C102.3 16.6 100.5 15.1 100.5 13.3V6.9H120ZM104.1 9V14.4H116.4V9H104.1ZM130 6.7C139.9 6.7 139.9 18.6 130 18.6C120.2 18.4 120 6.7 130 6.7ZM140.7 22H124.8V19.9H144.3V27.9H140.7V22ZM130 16.1C134.9 16.1 134.9 8.9 130 8.9C125 9 124.9 16.1 130 16.1ZM144.3 18.7H140.7V6.4H144.3V9H147.1V11.3H144.3V13.4H147.1V15.7H144.3V18.7ZM160.6 27.9H157V20.8H147.9V18.7H169.7V20.8H160.6V27.9ZM158.8 12.2C157.2 14.2 152.8 16.2 149.3 16.8L147.9 14.7C151.5 13.7 155.5 12.3 156.7 9H148.7V6.9H168.7V9H160.7C161.9 12.4 165.9 13.7 169.5 14.7L168.1 16.8C165 16.3 160.7 14.4 158.8 12.2ZM180.1 13.8C179.1 15.4 175.6 17.9 172.9 18.7L171.6 16.5C174.9 15.1 178.6 12.8 178.6 9.3V6.9H182.2V9.2C182.2 12.5 185.5 15 189.2 16.4L187.9 18.5C184.8 17.8 182 15.8 180.1 13.8ZM190.1 22.2H174.2V20.1H193.7V27.8H190.1V22.2ZM190.1 6.4H193.7V18.9H190.1V6.4ZM214.7 25C212.7 25.7 210.5 25.7 208.5 25.7H196.2V23.6H202.3V21.5C196.1 19.8 195.3 12.6 201 9.5H197V7.3H202.1V5.9H206V7.3H211.1V9.4H207.3C213 12.6 212.1 19.8 205.9 21.5V23.6H209C210.9 23.6 212.9 23.5 214.7 22.8V6.4H218.3V27.9H214.7V25ZM204.1 19.7C208.6 19.7 208.7 10.9 204.1 10.9C199.4 10.9 199.6 19.7 204.1 19.7ZM227.7 21C226.5 22.9 223.4 25.1 221 26L219.6 23.9C223.7 21.6 225.8 19.2 225.8 14.8V6.9H229.4V14.8C229.4 18.8 231.6 21.8 235.6 23.8L234.2 25.9C231.8 25 229.3 22.9 227.7 21ZM241.2 27.9H237.6V6.4H241.2V12.7H244V14.8H241.2V27.9Z" fill="black"/>
</g>
<defs>
<clipPath id="clip0_4_14">
<rect width="244" height="34" fill="white"/>
</clipPath>
</defs>
</svg>
